<svg xmlns="http://www.w3.org/2000/svg" width="440" height="158" style="shape-rendering:geometricPrecision;text-rendering:geometricPrecision;image-rendering:optimizeQuality;fill-rule:evenodd;clip-rule:evenodd"><path style="opacity:.965" fill="#fefffe" d="M102.5 4.5c1.843-.543 3.51.124 5 2 3.765 5.312 3.765 10.645 0 16-11.064 15.064-24.397 27.73-40 38a237.028 237.028 0 0 0-25 15.5c2.417 1.3 4.917 1.134 7.5-.5a3.943 3.943 0 0 0 2 1c15.145-2.615 30.145-3.948 45-4a5817.022 5817.022 0 0 1 47-3c12.772.879 25.938.879 39.5 0 9.53.654 19.03 1.321 28.5 2a23086.52 23086.52 0 0 1 195 0 72.547 72.547 0 0 0 21-6c2.386 1.263 4.219 3.097 5.5 5.5v9c-2.33 3.155-5.33 5.322-9 6.5-5.803.284-11.636.284-17.5 0l-2 2-19-2c-7.409.228-14.743.562-22 1a196.434 196.434 0 0 0-10-2c-21.647.03-44.314.364-68 1l-10-2a672.008 672.008 0 0 1-46.5 0 7.292 7.292 0 0 0-3 2 4.458 4.458 0 0 1-1.5-2c-28.734.057-58.067.057-88 0A1585.159 1585.159 0 0 0 46.5 92c-2.69.77-5.356 1.604-8 2.5a1666.99 1666.99 0 0 0 9 6.5 3491.29 3491.29 0 0 0 72 33.5c3.189 3.924 3.356 8.257.5 13-1.666 2.879-4.166 3.712-7.5 2.5a36.167 36.167 0 0 0-12-8 2581.435 2581.435 0 0 1-65-29A5152.328 5152.328 0 0 0 15 97.5H7A18.781 18.781 0 0 0 2.5 92c-.017-8.533 3.983-14.7 12-18.5.951.826 1.951.992 3 .5a2767.603 2767.603 0 0 1 55-34.5c10.833-7.34 19-17.006 24.5-29a47.849 47.849 0 0 1 5.5-6Z"/></svg>